<svg xmlns="http://www.w3.org/2000/svg" version="1.1" xmlns:xlink="http://www.w3.org/1999/xlink" xmlns:svgjs="http://svgjs.dev/svgjs" width="2000" height="1065" viewBox="0 0 2000 1065"><g transform="matrix(1,0,0,1,-1.2110989433742816,0.637274033792437)"><svg viewBox="0 0 396 211" data-background-color="#000000" preserveAspectRatio="xMidYMid meet" height="1065" width="2000" xmlns="http://www.w3.org/2000/svg" xmlns:xlink="http://www.w3.org/1999/xlink"><g id="tight-bounds" transform="matrix(1,0,0,1,0.23996232079991842,-0.12625804800958917)"><svg viewBox="0 0 395.52 211.25251609601918" height="211.25251609601918" width="395.52"><g><svg viewBox="0 0 395.52 211.25251609601918" height="211.25251609601918" width="395.52"><g transform="matrix(1,0,0,1,0,108.88393671956996)"><svg viewBox="0 0 395.52 102.36857937644923" height="102.36857937644923" width="395.52"><g id="textblocktransform"><svg viewBox="0 0 395.52 102.36857937644923" height="102.36857937644923" width="395.52" id="textblock"><g><svg viewBox="0 0 395.52 102.36857937644923" height="102.36857937644923" width="395.52"><g transform="matrix(1,0,0,1,0,0)"><svg width="395.52" viewBox="-4.482252137709962 -15.736868386178541 174.58983579805508 45.1873921083036" height="102.36857937644923" data-palette-color="#999a9b"><path d="M6.238 6.155l-4.134 5.967 0.694 0.499 4.133-5.967v0 0 0l11.866-16.916c0.05-0.056-0.027-0.052-0.231 0.01-0.205 0.069-0.275 0.112-0.211 0.129v0l2.674 0.724c0.064 0.017 0.025-0.055-0.117-0.218-0.144-0.156-0.209-0.198-0.195-0.125v0l1.754 20.605c0.032 0.009 0.042 0.011 0.029 0.008-0.019-0.005-0.029-0.008-0.029-0.008v0l0.461 7.212 0.851-0.081-0.461-7.211v0 0 0l-1.764-20.608c-0.053-0.187-0.16-0.302-0.32-0.346v0l-2.674-0.724c-0.161-0.044-0.311 0.002-0.451 0.137v0l-11.875 16.913v0 0zM6.48 6.791l16.312 4.418 0.209-0.772-16.312-4.418zM18.84-10.613l-1.165-4.418-0.768 0.196 1.162 4.428c-0.009 0.032-0.011 0.014-0.006-0.054-0.002-0.07-0.007-0.088-0.016-0.056v0l-0.367 5.909c0.012 0.21 0.115 0.342 0.307 0.395 0.187 0.051 0.338-0.012 0.455-0.188v0l3.051-5.183c0.009-0.032-0.012-0.02-0.061 0.036-0.05 0.056-0.054 0.072-0.013 0.048v0l3.528-3.158-0.574-0.559-3.516 3.15c0 0-0.003 0.01-0.008 0.029-0.003 0.013-0.026 0.031-0.066 0.055v0l-3.051 5.182c-0.084 0.184 0.023 0.324 0.322 0.419 0.297 0.101 0.444 0.031 0.44-0.212v0l0.368-5.909c0 0-0.005-0.008-0.014-0.025-0.014-0.025-0.017-0.053-0.008-0.085zM6.734 6.808l5.075-1.868-0.302-0.797-5.072 1.859c-0.082 0.047-0.145 0.127-0.189 0.238-0.049 0.104-0.054 0.213-0.016 0.328v0l1.494 3.585 0.707-0.316-1.492-3.595c-0.015-0.073-0.081 0.006-0.198 0.236-0.11 0.226-0.112 0.336-0.007 0.33zM23.181 10.538l-3.875-4.282-0.557 0.564 3.863 4.289c0.088 0.058 0.144-0.047 0.169-0.317 0.018-0.271-0.018-0.367-0.108-0.289v0l-3.528 2.236 0.442 0.627 3.534-2.223c0.082-0.047 0.14-0.135 0.175-0.264 0.035-0.129-0.003-0.243-0.115-0.341zM2.131 12.596l3.263 4.479 0.629-0.451-3.252-4.477c-0.047-0.082-0.107-0.14-0.181-0.173-0.078-0.042-0.159-0.039-0.241 0.007v0l-6.554 1.82 0.204 0.781 6.553-1.82c0.082-0.047 0.022-0.108-0.178-0.183-0.209-0.07-0.29-0.065-0.243 0.017zM23.073 18.32l5.077 4.97 0.569-0.571-5.077-4.97c-0.047-0.082-0.112-0.123-0.194-0.125-0.087-0.01-0.172 0.009-0.253 0.056v0l-5.406 2.13 0.326 0.71 5.405-2.131c0.073-0.015 0.007-0.05-0.199-0.105-0.212-0.058-0.295-0.045-0.248 0.036zM8.439 10.191l-0.464 0.185 11.293 3.059-0.308-0.394c0.026 1.409-0.008 2.54-0.1 3.392-0.091 0.846-0.233 1.536-0.426 2.07-0.198 0.527-0.458 1.002-0.78 1.426v0c-0.061 0.122-0.077 0.245-0.049 0.37 0.033 0.133 0.114 0.217 0.243 0.252v0l10.482 2.84c0.154 0.042 0.284-0.003 0.388-0.133 0.103-0.124 0.123-0.264 0.062-0.419v0c-0.218-0.57-0.421-1.24-0.606-2.008-0.186-0.769-0.368-1.802-0.548-3.101-0.18-1.299-0.39-3.024-0.629-5.175-0.238-2.157-0.519-4.906-0.844-8.247v0c-0.287-3.124-0.514-5.699-0.683-7.727-0.167-2.034-0.285-3.652-0.354-4.852-0.069-1.2-0.102-2.148-0.1-2.845 0.004-0.703 0.018-1.29 0.042-1.76v0c-0.006-0.105-0.033-0.199-0.079-0.281-0.047-0.082-0.119-0.136-0.216-0.161v0l-7.364-1.995c-0.097-0.026-0.192-0.018-0.287 0.026-0.101 0.042-0.169 0.127-0.204 0.255v0c-0.161 0.467-0.421 1.019-0.779 1.654-0.36 0.641-0.903 1.472-1.628 2.491-0.719 1.021-1.658 2.348-2.819 3.981-1.162 1.64-2.622 3.676-4.379 6.108v0c-1.966 2.721-3.596 4.952-4.891 6.694-1.292 1.736-2.344 3.119-3.154 4.15-0.811 1.03-1.49 1.831-2.039 2.4-0.548 0.57-1.064 1.045-1.546 1.426v0c-0.125 0.104-0.174 0.236-0.149 0.395 0.018 0.164 0.107 0.267 0.269 0.311v0l9.806 2.656c0.161 0.044 0.289 0.016 0.385-0.082 0.094-0.092 0.126-0.211 0.097-0.358v0c-0.032-0.52-0.007-1.059 0.075-1.616 0.084-0.564 0.31-1.232 0.677-2.003 0.363-0.779 0.898-1.774 1.606-2.984zM18.429-4.353l-0.763-0.206 0.94 11.143 0.52-0.429-7.365-1.995 0.243 0.636zM19.474 12.673l-11.293-3.059c-0.097-0.026-0.183-0.025-0.26 0.002-0.078 0.034-0.146 0.092-0.202 0.173v0c-0.761 1.306-1.325 2.38-1.69 3.22-0.366 0.84-0.588 1.557-0.666 2.151-0.073 0.602-0.082 1.183-0.027 1.744v0l0.472-0.442-9.806-2.657 0.119 0.706c0.51-0.38 1.041-0.861 1.593-1.444 0.553-0.589 1.247-1.403 2.081-2.441 0.827-1.04 1.89-2.437 3.187-4.192 1.297-1.755 2.934-4.009 4.908-6.762v0c1.807-2.488 3.305-4.565 4.496-6.231 1.182-1.662 2.139-3.012 2.869-4.051 0.722-1.034 1.265-1.878 1.628-2.533 0.364-0.654 0.626-1.215 0.788-1.682v0l-0.479 0.274 7.365 1.995-0.295-0.442c-0.034 0.509-0.049 1.112-0.045 1.811-0.004 0.703 0.024 1.671 0.084 2.903 0.06 1.232 0.181 2.864 0.363 4.895 0.187 2.04 0.432 4.641 0.735 7.804v0c0.322 3.375 0.6 6.147 0.835 8.317 0.234 2.17 0.446 3.913 0.635 5.228 0.189 1.315 0.374 2.367 0.555 3.155 0.182 0.781 0.401 1.466 0.656 2.053v0l0.459-0.549-10.482-2.84 0.194 0.623c0.363-0.447 0.652-0.953 0.866-1.516 0.219-0.555 0.387-1.287 0.502-2.196 0.108-0.91 0.16-2.122 0.156-3.635v0c-0.008-0.099-0.037-0.183-0.088-0.252-0.052-0.062-0.123-0.106-0.213-0.13zM19.447 6.501l-0.94-11.143c-0.021-0.178-0.124-0.293-0.311-0.344-0.193-0.052-0.344-0.007-0.451 0.137v0l-6.435 9.146c-0.067 0.12-0.074 0.246-0.02 0.378 0.048 0.13 0.136 0.213 0.265 0.248v0l7.365 1.995c0.161 0.044 0.288 0.019 0.382-0.073 0.094-0.092 0.142-0.207 0.145-0.344zM38.322 21.527v0l4.078-27.257c0.015-0.099-0.08-0.073-0.285 0.079-0.211 0.15-0.267 0.233-0.168 0.247v0l7.358 1.101v0 0 0c2.578 0.386 4.751 1.274 6.518 2.664 1.761 1.383 3.043 3.135 3.844 5.257 0.802 2.122 1.002 4.525 0.6 7.208v0 0 0 0c-0.401 2.677-1.297 4.932-2.691 6.766-1.392 1.827-3.133 3.144-5.222 3.951-2.096 0.805-4.432 1.015-7.01 0.63v0 0 0 0l-7.358-1.101c-0.099-0.015-0.069 0.081 0.088 0.286 0.15 0.211 0.233 0.267 0.248 0.169zM38.131 21.791l4.141-2.535-0.407-0.658-4.141 2.536c0 0 0.011-0.008 0.034-0.026 0.015-0.011 0.023-0.017 0.023-0.016v0l-5.301 2.311 0.282 0.75 5.312-2.32c0.033 0.005 0.05 0.001 0.053-0.012 0.003-0.02 0.004-0.03 0.004-0.03zM42.254-6.106l-4.401-3.763-0.488 0.625 4.39 3.771c0 0-0.005-0.011-0.015-0.032-0.018-0.016-0.027-0.024-0.027-0.025v0l3.217 3.637 0.584-0.52-3.218-3.636c0 0 0.001-0.007 0.003-0.02 0.003-0.02-0.012-0.032-0.045-0.037zM41.619-5.847l-4.078 27.257c-0.015 0.099 0.011 0.194 0.079 0.284 0.067 0.091 0.15 0.144 0.249 0.159v0l7.358 1.101v0 0 0c2.71 0.405 5.18 0.182 7.411-0.671 2.237-0.852 4.094-2.242 5.569-4.172 1.476-1.936 2.427-4.325 2.851-7.167v0 0 0 0c0.425-2.842 0.214-5.398-0.632-7.668-0.848-2.264-2.218-4.12-4.111-5.569-1.885-1.455-4.183-2.385-6.893-2.791v0 0 0 0l-7.358-1.101c-0.099-0.015-0.194 0.015-0.286 0.089-0.091 0.067-0.144 0.15-0.159 0.249zM32.567 24.174v0l12.442 1.862c3.303 0.494 6.359 0.233 9.166-0.783 2.809-1.022 5.15-2.704 7.024-5.046 1.867-2.343 3.06-5.245 3.578-8.706v0c0.519-3.468 0.226-6.579-0.879-9.333-1.111-2.755-2.861-5.029-5.248-6.822-2.388-1.793-5.233-2.937-8.536-3.431v0l-12.442-1.861c-0.132-0.02-0.249 0.02-0.351 0.119-0.097 0.107-0.124 0.244-0.082 0.413v0c0.188 0.5 0.316 1.089 0.382 1.766 0.067 0.677 0.055 1.592-0.036 2.745-0.086 1.16-0.245 2.676-0.478 4.549-0.225 1.867-0.556 4.255-0.991 7.162v0c-0.46 3.072-0.864 5.594-1.213 7.564-0.342 1.971-0.646 3.553-0.912 4.747-0.261 1.201-0.523 2.123-0.788 2.764-0.265 0.648-0.563 1.196-0.893 1.646v0c-0.086 0.122-0.099 0.255-0.04 0.399 0.066 0.145 0.165 0.227 0.297 0.246zM45.163-1.758l3.432 0.514c2.941 0.44 5.115 1.699 6.523 3.777 1.414 2.085 1.891 4.664 1.431 7.737v0c-0.46 3.072-1.673 5.412-3.639 7.018-1.96 1.614-4.411 2.202-7.352 1.762v0l-3.431-0.513 0.337 0.444c0.12-1.249 0.295-2.76 0.527-4.532 0.23-1.765 0.537-3.924 0.918-6.475v0c0.347-2.321 0.66-4.296 0.937-5.927 0.277-1.624 0.531-2.988 0.764-4.092v0zM45.127 25.244l-12.441-1.861 0.247 0.644c0.338-0.455 0.641-1.02 0.911-1.694 0.264-0.682 0.547-1.627 0.849-2.836 0.295-1.203 0.62-2.816 0.976-4.839 0.349-2.017 0.758-4.595 1.228-7.733v0c0.445-2.974 0.787-5.42 1.027-7.339 0.233-1.92 0.381-3.469 0.443-4.646 0.055-1.178 0.053-2.112-0.006-2.801-0.064-0.697-0.192-1.309-0.382-1.837v0l-0.424 0.533 12.442 1.862c3.171 0.474 5.89 1.565 8.155 3.272 2.271 1.715 3.935 3.885 4.992 6.511 1.062 2.633 1.346 5.601 0.852 8.904v0c-0.493 3.297-1.635 6.065-3.427 8.304-1.785 2.241-4.013 3.845-6.686 4.814-2.666 0.97-5.585 1.217-8.756 0.742zM48.713-2.035v0l-3.432-0.514c-0.099-0.015-0.193 0.005-0.282 0.059-0.096 0.053-0.151 0.129-0.165 0.228v0c-0.243 1.17-0.502 2.567-0.779 4.191-0.278 1.63-0.59 3.606-0.937 5.927v0c-0.382 2.552-0.688 4.71-0.918 6.475-0.231 1.772-0.407 3.283-0.527 4.532v0c-0.02 0.132 0.008 0.237 0.084 0.316 0.069 0.078 0.153 0.124 0.253 0.139v0l3.431 0.513c3.138 0.47 5.78-0.153 7.924-1.868 2.145-1.722 3.467-4.247 3.965-7.577v0c0.494-3.303-0.034-6.082-1.584-8.336-1.55-2.254-3.894-3.616-7.033-4.085zM73.279 25.723l1.621-27.512-0.799-0.047-1.621 27.512zM72.66 26.027l4.67 3.361 0.441-0.675-4.671-3.351c-0.031-0.035-0.087-0.055-0.167-0.06-0.087-0.005-0.164 0.007-0.233 0.036v0l-5.072 2.777 0.348 0.722 5.083-2.786c0.07-0.063 0.006-0.1-0.194-0.112-0.2-0.012-0.268 0.018-0.205 0.088zM74.721-2.15l-4.721-3.354-0.43 0.666 4.71 3.363c0.065 0.031 0.141 0.048 0.228 0.053 0.08 0.005 0.137-0.005 0.172-0.03v0l5.033-2.788-0.359-0.713-5.032 2.779c-0.069 0.029-0.003 0.05 0.196 0.062 0.2 0.012 0.267-0.001 0.203-0.038zM67.774 28.875v0l9.753 0.574c0.166 0.01 0.283-0.05 0.351-0.179 0.074-0.129 0.082-0.262 0.024-0.399v0c-0.197-0.506-0.366-1.103-0.506-1.793-0.147-0.683-0.224-1.639-0.231-2.869-0.015-1.223 0.013-2.834 0.084-4.833 0.071-1.999 0.198-4.55 0.381-7.651v0c0.173-2.935 0.338-5.339 0.495-7.214 0.158-1.881 0.314-3.397 0.468-4.55 0.148-1.147 0.334-2.044 0.56-2.692 0.219-0.648 0.455-1.199 0.708-1.651v0c0.076-0.156 0.084-0.296 0.025-0.419-0.053-0.117-0.163-0.18-0.33-0.19v0l-9.753-0.575c-0.126-0.007-0.236 0.043-0.329 0.151-0.087 0.115-0.102 0.254-0.045 0.418v0c0.232 0.481 0.412 1.056 0.54 1.725 0.128 0.669 0.197 1.581 0.209 2.737 0.018 1.163-0.005 2.688-0.069 4.574-0.057 1.88-0.173 4.287-0.346 7.222v0c-0.183 3.101-0.36 5.649-0.53 7.642-0.164 1.994-0.326 3.597-0.484 4.81-0.152 1.22-0.331 2.161-0.537 2.823-0.206 0.669-0.454 1.242-0.742 1.72v0c-0.074 0.129-0.076 0.263-0.004 0.4 0.079 0.138 0.181 0.211 0.308 0.219zM77.574 28.651l-9.753-0.575 0.314 0.62c0.296-0.483 0.544-1.073 0.745-1.77 0.208-0.702 0.409-1.669 0.602-2.899 0.186-1.225 0.362-2.86 0.53-4.908 0.174-2.04 0.354-4.644 0.54-7.811v0c0.177-3.001 0.296-5.469 0.356-7.402 0.067-1.933 0.079-3.488 0.035-4.666-0.051-1.178-0.14-2.109-0.267-2.791-0.12-0.688-0.298-1.286-0.535-1.794v0l-0.384 0.568 9.753 0.575-0.315-0.61c-0.262 0.479-0.503 1.052-0.722 1.721-0.219 0.662-0.42 1.575-0.602 2.739-0.189 1.164-0.363 2.71-0.524 4.637-0.167 1.927-0.339 4.391-0.516 7.393v0c-0.187 3.168-0.314 5.775-0.381 7.821-0.074 2.053-0.088 3.698-0.04 4.936 0.04 1.245 0.129 2.228 0.267 2.951 0.138 0.716 0.309 1.33 0.512 1.843v0zM101.805-1.254v0l0.082-0.793c-1.189-0.073-2.57-0.114-4.144-0.124-1.567-0.017-3.121-0.025-4.662-0.023-1.534 0.002-2.88 0.033-4.039 0.094v0c-0.133 0.003-0.232 0.049-0.296 0.136-0.058 0.081-0.086 0.172-0.084 0.272v0l0.635 27.553c0.002 0.1 0.034 0.189 0.096 0.268 0.068 0.078 0.169 0.116 0.303 0.113v0c1.194 0.006 2.55-0.015 4.07-0.064 1.519-0.055 3.044-0.134 4.575-0.235 1.538-0.095 2.899-0.207 4.084-0.335v0l-0.119-0.797c-1.151 0.127-2.485 0.241-4.003 0.342-1.518 0.102-3.037 0.18-4.556 0.235-1.519 0.048-2.876 0.07-4.069 0.064v0c-0.1 0.002-0.055 0.091 0.136 0.267 0.184 0.182 0.275 0.224 0.273 0.124v0l-0.635-27.553c-0.002-0.1-0.091-0.058-0.268 0.126-0.182 0.184-0.224 0.275-0.123 0.273v0c1.159-0.053 2.505-0.084 4.039-0.093 1.54-0.002 3.088 0.005 4.641 0.023 1.554 0.011 2.909 0.053 4.064 0.126zM89.367 11.976l11.447-0.264-0.018-0.79-11.447 0.264zM89.944 26.136l3.647-3.205-0.514-0.578-3.647 3.205c0 0 0.01-0.01 0.03-0.031 0.013-0.014 0.02-0.02 0.019-0.02v0l-4.828 3.182 0.406 0.691 4.838-3.193c0.033-0.001 0.05-0.008 0.049-0.021 0-0.02-0.001-0.03 0-0.03zM89.244-2.055l-4.98-2.956-0.374 0.699 4.97 2.966c0 0-0.007-0.01-0.021-0.03-0.02-0.013-0.03-0.019-0.03-0.019v0l3.791 3.034 0.486-0.612-3.791-3.033c0 0 0-0.007-0.001-0.02 0-0.02-0.017-0.03-0.05-0.029zM102.152-1.413l2.99-3.489-0.601-0.477-3 3.49c-0.033 0.034-0.054 0.108-0.065 0.222-0.017 0.114-0.009 0.204 0.026 0.269v0l3.179 4.248 0.678-0.515-3.169-4.239c-0.068-0.065-0.11 0.019-0.124 0.253-0.008 0.227 0.02 0.306 0.086 0.238zM102.671 25.453l3.948-4.903-0.601-0.486-3.958 4.903c-0.065 0.068-0.097 0.152-0.094 0.252 0.002 0.1 0.038 0.183 0.106 0.247v0l3.158 3.349 0.578-0.514-3.148-3.348c-0.068-0.065-0.093 0.019-0.074 0.252 0.025 0.233 0.054 0.316 0.085 0.248zM101.111 11.555l2.975-4.13-0.601-0.486-2.986 4.13c-0.058 0.068-0.087 0.152-0.084 0.252 0.002 0.1 0.034 0.183 0.096 0.248v0l3.171 3.938 0.579-0.504-3.162-3.948c-0.035-0.059-0.049 0.024-0.044 0.251 0.005 0.233 0.024 0.316 0.056 0.249zM89.615 11.87l3.45-3.05-0.513-0.589-3.451 3.051c-0.092 0.069-0.136 0.17-0.133 0.303 0.003 0.133 0.052 0.232 0.147 0.297v0l3.587 2.888 0.487-0.602-3.588-2.898c-0.101-0.058-0.149 0.043-0.143 0.304 0.006 0.267 0.058 0.365 0.157 0.296zM84.868 29.434v0l20.655-0.476c0.1-0.002 0.183-0.038 0.248-0.106 0.065-0.068 0.113-0.153 0.144-0.253v0l0.8-8.251c0.029-0.167-0.03-0.296-0.179-0.386-0.149-0.097-0.305-0.08-0.469 0.051v0c-0.556 0.48-1.273 0.876-2.153 1.19-0.886 0.321-2.154 0.566-3.804 0.738-1.65 0.171-3.911 0.274-6.785 0.306v0l0.409 0.381c-0.056-0.986-0.116-2.148-0.181-3.487-0.064-1.339-0.134-2.898-0.207-4.676v0l-0.391 0.399c2.613-0.06 4.603-0.073 5.97-0.038 1.375 0.035 2.41 0.111 3.106 0.229 0.696 0.117 1.281 0.301 1.754 0.549v0c0.161 0.063 0.301 0.053 0.419-0.029 0.111-0.083 0.166-0.191 0.163-0.324v0l-0.187-8.078c-0.004-0.167-0.063-0.282-0.178-0.346-0.122-0.064-0.261-0.061-0.42 0.01v0c-0.46 0.277-1.035 0.497-1.725 0.66-0.69 0.163-1.727 0.287-3.112 0.371-1.385 0.079-3.367 0.164-5.946 0.258v0l0.409 0.39c-0.002-1.554-0.001-2.917 0.006-4.091 0.006-1.174 0.016-2.208 0.029-3.101v0l-0.391 0.409c2.804-0.131 4.978-0.141 6.521-0.031 1.536 0.111 2.697 0.275 3.482 0.49 0.779 0.215 1.434 0.464 1.968 0.745v0c0.168 0.063 0.311 0.053 0.429-0.03 0.111-0.083 0.166-0.191 0.163-0.324v0l-0.178-7.728c-0.002-0.1-0.044-0.192-0.127-0.277-0.088-0.078-0.183-0.116-0.283-0.113v0l-20.754 0.478c-0.133 0.003-0.242 0.062-0.326 0.178-0.077 0.122-0.081 0.262-0.01 0.42v0c0.271 0.461 0.497 1.019 0.678 1.675 0.182 0.656 0.326 1.56 0.433 2.711 0.113 1.158 0.215 2.679 0.305 4.564 0.097 1.878 0.179 4.287 0.247 7.226v0c0.072 3.106 0.104 5.659 0.097 7.66-0.001 2.001-0.03 3.612-0.089 4.833-0.052 1.228-0.153 2.181-0.304 2.858-0.151 0.684-0.351 1.275-0.599 1.774v0c-0.064 0.135-0.054 0.268 0.029 0.4 0.09 0.131 0.201 0.195 0.334 0.192zM105.504 28.158l-20.654 0.476 0.354 0.592c0.255-0.506 0.458-1.114 0.608-1.824 0.144-0.717 0.261-1.696 0.352-2.939 0.085-1.236 0.13-2.88 0.136-4.934-0.001-2.047-0.037-4.657-0.11-7.83v0c-0.069-3.006-0.15-5.475-0.241-7.406-0.098-1.932-0.217-3.483-0.357-4.653-0.147-1.17-0.308-2.09-0.484-2.76-0.182-0.676-0.412-1.257-0.691-1.745v0l-0.326 0.598 20.755-0.479-0.399-0.38 0.178 7.728 0.582-0.364c-0.567-0.287-1.26-0.544-2.079-0.772-0.812-0.228-2.013-0.407-3.603-0.537-1.59-0.123-3.82-0.122-6.692 0.004v0c-0.1 0.002-0.189 0.038-0.267 0.106-0.085 0.069-0.126 0.17-0.123 0.303v0c-0.013 0.894-0.022 1.928-0.029 3.102-0.006 1.174-0.008 2.538-0.005 4.091v0c0.002 0.1 0.048 0.189 0.136 0.267 0.082 0.078 0.173 0.116 0.272 0.113v0c2.046-0.047 3.705-0.109 4.977-0.184 1.272-0.076 2.297-0.173 3.075-0.291 0.771-0.118 1.385-0.249 1.841-0.393 0.463-0.144 0.89-0.321 1.278-0.53v0l-0.598-0.326 0.187 8.078 0.582-0.363c-0.398-0.191-0.832-0.348-1.302-0.471-0.463-0.116-1.082-0.208-1.857-0.277-0.782-0.062-1.816-0.105-3.103-0.128-1.294-0.017-2.947-0.002-4.961 0.044v0c-0.1 0.002-0.189 0.044-0.267 0.126-0.085 0.089-0.126 0.183-0.123 0.283v0c0.074 1.779 0.144 3.338 0.208 4.677 0.064 1.339 0.124 2.501 0.18 3.486v0c0.003 0.133 0.049 0.232 0.137 0.297 0.082 0.065 0.172 0.096 0.272 0.094v0c3.007-0.036 5.358-0.147 7.054-0.333 1.703-0.193 3.01-0.463 3.923-0.81 0.919-0.355 1.669-0.785 2.25-1.293v0l-0.647-0.335-0.8 8.251zM113.727 28.101l4.472-3.847-0.483-0.646-4.462 3.846zM118.242 24.198l3.29-3.712-0.568-0.524-3.291 3.702zM114.758-3.595l-5.25-2.444-0.302 0.732 5.24 2.456c0.069 0.018 0.147 0.022 0.234 0.012 0.079-0.01 0.134-0.03 0.163-0.061v0l4.446-3.653-0.482-0.635-4.446 3.643c-0.062 0.041 0.006 0.05 0.204 0.025 0.198-0.025 0.263-0.049 0.193-0.075zM129.501 22.353l3.497 3.266 0.534-0.57-3.507-3.264c-0.034-0.056-0.037 0.028-0.009 0.253 0.029 0.232 0.052 0.313 0.071 0.243v0l3.449-5.273-0.655-0.413-3.441 5.262c-0.058 0.074-0.081 0.161-0.069 0.26 0.012 0.099 0.056 0.178 0.13 0.236zM118.355 23.882l-3.356-27.154-0.784 0.097 3.355 27.154c0.016 0.132 0.068 0.227 0.156 0.283 0.088 0.056 0.181 0.078 0.281 0.066v0l11.81-1.863-0.097-0.784-11.812 1.853c-0.132 0.016-0.087 0.112 0.137 0.285 0.223 0.174 0.326 0.195 0.31 0.063zM113.545 28.174v0l19.769-2.443c0.099-0.012 0.178-0.056 0.236-0.13 0.058-0.074 0.097-0.163 0.118-0.266v0l-0.057-8.538c0.013-0.163-0.062-0.285-0.227-0.365-0.158-0.081-0.311-0.045-0.46 0.107v0c-0.503 0.492-1.164 0.94-1.98 1.343-0.818 0.397-1.99 0.75-3.517 1.06-1.528 0.303-3.604 0.6-6.228 0.89v0l0.446 0.348c-0.217-1.209-0.449-2.679-0.695-4.408-0.248-1.736-0.522-3.818-0.823-6.246v0c-0.361-2.918-0.633-5.312-0.817-7.184-0.178-1.879-0.299-3.399-0.362-4.56-0.062-1.154-0.041-2.071 0.063-2.749 0.098-0.677 0.234-1.262 0.408-1.753v0c0.047-0.167 0.029-0.306-0.051-0.417-0.08-0.104-0.203-0.146-0.368-0.126v0l-9.687 1.198c-0.132 0.016-0.235 0.086-0.306 0.209-0.065 0.129-0.054 0.269 0.031 0.419v0c0.315 0.431 0.596 0.964 0.843 1.599 0.246 0.635 0.48 1.519 0.701 2.654 0.228 1.141 0.481 2.644 0.759 4.511 0.283 1.859 0.606 4.248 0.966 7.165v0c0.381 3.083 0.668 5.621 0.86 7.612 0.199 1.991 0.33 3.597 0.394 4.818 0.071 1.227 0.065 2.185-0.018 2.874-0.082 0.695-0.222 1.304-0.419 1.826v0c-0.05 0.141-0.027 0.272 0.069 0.394 0.102 0.122 0.22 0.174 0.352 0.158zM133.216 24.937l-19.769 2.443 0.411 0.554c0.203-0.529 0.344-1.154 0.423-1.876 0.071-0.728 0.09-1.714 0.057-2.96-0.039-1.238-0.158-2.879-0.356-4.923-0.205-2.037-0.502-4.63-0.891-7.78v0c-0.369-2.984-0.695-5.432-0.978-7.345-0.29-1.912-0.563-3.444-0.82-4.594-0.263-1.15-0.515-2.049-0.757-2.698-0.249-0.654-0.536-1.21-0.861-1.667v0l-0.265 0.628 9.687-1.197-0.42-0.543c-0.164 0.517-0.298 1.125-0.4 1.823-0.096 0.69-0.128 1.625-0.097 2.803 0.025 1.179 0.133 2.731 0.324 4.655 0.184 1.925 0.461 4.38 0.829 7.364v0c0.3 2.428 0.574 4.51 0.823 6.246 0.247 1.729 0.479 3.199 0.695 4.408v0c0.016 0.132 0.071 0.223 0.165 0.272 0.088 0.056 0.181 0.078 0.28 0.066v0c2.756-0.307 4.923-0.632 6.5-0.974 1.57-0.342 2.779-0.723 3.627-1.144 0.848-0.421 1.538-0.899 2.07-1.434v0l-0.678-0.269 0.047 8.538zM134.671-6.097l1.556 8.478 0.777-0.142-1.556-8.479zM136.429 2.649l2.9 1.786 0.376-0.669-2.9-1.786c-0.078-0.054-0.162-0.072-0.255-0.055-0.098 0.018-0.174 0.066-0.227 0.144v0l-2.028 2.69 0.598 0.49 2.018-2.688c0.054-0.078-0.031-0.096-0.254-0.055-0.23 0.042-0.305 0.09-0.228 0.143zM135.246-6.508l-4.646-2.268-0.385 0.671 4.658 2.276c0.076 0.047 0.164 0.061 0.262 0.043 0.092-0.017 0.165-0.061 0.22-0.132v0l3.594-3.791-0.598-0.49-3.587 3.78c-0.06 0.045 0.025 0.046 0.255 0.004 0.223-0.041 0.299-0.072 0.227-0.093zM134.523 4.616l0.445 0.264-4.175-13.437-0.314 0.505 8.242-1.513-0.473-0.361 0.871 14.044 0.322-0.405zM130.032-8.326l4.177 13.447c0.051 0.092 0.115 0.165 0.193 0.219 0.078 0.054 0.166 0.071 0.264 0.053v0l4.917-0.903c0.098-0.018 0.174-0.066 0.228-0.144 0.054-0.078 0.088-0.169 0.103-0.273v0l-0.863-14.055c0.003-0.129-0.042-0.23-0.136-0.3-0.093-0.064-0.205-0.084-0.337-0.06v0l-8.242 1.513c-0.131 0.024-0.229 0.083-0.293 0.176-0.063 0.1-0.067 0.209-0.011 0.327zM159.725-11.433v0l0.089-0.84c-1.046-0.069-2.067-0.058-3.063 0.033-1.001 0.099-1.966 0.271-2.895 0.516v0 0 0 0c-2.681 0.708-4.623 1.893-5.825 3.554-1.201 1.668-1.518 3.573-0.954 5.713v0 0 0 0c0.347 1.315 0.996 2.323 1.947 3.023 0.958 0.705 2.098 1.235 3.419 1.59 1.326 0.346 2.707 0.654 4.143 0.923v0 0 0 0c1.298 0.243 2.56 0.517 3.785 0.822 1.227 0.311 2.297 0.773 3.21 1.386 0.914 0.614 1.526 1.51 1.837 2.69v0 0 0 0c0.541 2.05 0.214 3.829-0.98 5.337-1.186 1.513-3.043 2.603-5.57 3.27v0 0 0 0c-0.986 0.26-2.038 0.442-3.155 0.544-1.122 0.11-2.256 0.127-3.4 0.049v0l-0.086 0.85c1.213 0.052 2.402 0.021 3.564-0.093 1.168-0.122 2.26-0.318 3.279-0.586v0 0 0 0c2.746-0.725 4.766-1.941 6.06-3.648 1.292-1.713 1.643-3.688 1.052-5.925v0 0 0 0c-0.345-1.308-0.99-2.3-1.933-2.975-0.95-0.673-2.085-1.184-3.404-1.531-1.327-0.353-2.709-0.664-4.145-0.933v0 0 0 0c-1.297-0.237-2.56-0.517-3.791-0.841-1.232-0.33-2.306-0.808-3.223-1.434-0.917-0.627-1.532-1.533-1.845-2.72v0 0 0 0c-0.514-1.947-0.214-3.657 0.901-5.129 1.114-1.473 2.886-2.531 5.316-3.172v0 0 0 0c0.864-0.228 1.781-0.384 2.752-0.468 0.963-0.089 1.934-0.09 2.915-0.005zM160.087-11.631l2.261-3.462-0.627-0.455-2.269 3.474c-0.047 0.081-0.066 0.169-0.054 0.262 0.006 0.102 0.034 0.181 0.083 0.237v0l4.346 4.396 0.565-0.563-4.334-4.389c-0.049-0.056-0.063 0.023-0.04 0.238 0.022 0.215 0.045 0.302 0.069 0.262zM151.951 17.376l-2.246 3.52 0.634 0.443 2.249-3.511c0.047-0.081 0.075-0.175 0.081-0.28 0.007-0.105-0.031-0.182-0.112-0.228v0l-4.356-4.435-0.565 0.562 4.346 4.438c0.081 0.047 0.109-0.046 0.081-0.28-0.027-0.234-0.065-0.31-0.112-0.229zM147.536 13.267v0l2.101 7.957c0.026 0.097 0.072 0.167 0.139 0.212 0.062 0.053 0.146 0.082 0.251 0.089v0c1.741-0.012 3.401-0.098 4.978-0.26 1.578-0.161 3.101-0.436 4.571-0.824v0c2.527-0.667 4.652-1.655 6.375-2.965 1.723-1.31 2.927-2.9 3.612-4.77 0.685-1.87 0.724-3.956 0.116-6.257v0c-0.482-1.824-1.313-3.222-2.492-4.193-1.18-0.971-2.537-1.671-4.071-2.1-1.527-0.431-3.058-0.772-4.593-1.022v0c-1.119-0.215-2.189-0.418-3.212-0.61-1.029-0.19-1.902-0.48-2.619-0.87-0.717-0.39-1.168-0.936-1.354-1.639v0c-0.22-0.832-0.072-1.605 0.443-2.32 0.506-0.72 1.43-1.257 2.771-1.611v0c1.379-0.364 2.911-0.493 4.593-0.385 1.681 0.101 3.282 0.495 4.802 1.184v0c0.148 0.064 0.288 0.045 0.419-0.059 0.126-0.095 0.168-0.224 0.125-0.385v0l-2.075-7.861c-0.026-0.097-0.069-0.171-0.131-0.224-0.069-0.051-0.155-0.08-0.261-0.086v0c-1.579-0.025-3.082 0.041-4.509 0.198-1.429 0.15-2.798 0.397-4.106 0.742v0c-2.527 0.667-4.623 1.658-6.29 2.974-1.674 1.311-2.832 2.878-3.474 4.703-0.647 1.833-0.684 3.835-0.111 6.007v0c0.488 1.85 1.325 3.27 2.511 4.26 1.184 0.984 2.543 1.694 4.079 2.13 1.527 0.431 3.057 0.768 4.59 1.012v0c1.112 0.189 2.188 0.374 3.228 0.554 1.042 0.187 1.925 0.461 2.648 0.821 0.727 0.353 1.188 0.896 1.382 1.632v0c0.228 0.864 0.057 1.678-0.514 2.442-0.564 0.763-1.597 1.342-3.099 1.738v0c-1.502 0.397-3.174 0.566-5.016 0.508-1.843-0.058-3.594-0.451-5.255-1.178v0c-0.154-0.063-0.297-0.042-0.428 0.061-0.125 0.102-0.166 0.233-0.124 0.395zM150.401 21.023l-2.101-7.958-0.542 0.454c1.764 0.727 3.606 1.137 5.527 1.23 1.921 0.093 3.68-0.072 5.279-0.494v0c1.792-0.473 3.001-1.196 3.627-2.168 0.634-0.967 0.816-1.963 0.545-2.988v0c-0.228-0.864-0.714-1.515-1.457-1.953-0.748-0.43-1.672-0.758-2.773-0.985-1.099-0.22-2.325-0.424-3.678-0.611v0c-1.428-0.237-2.861-0.558-4.299-0.965-1.444-0.405-2.731-1.058-3.858-1.96-1.119-0.897-1.907-2.21-2.363-3.937v0c-0.539-2.043-0.504-3.907 0.106-5.592 0.618-1.68 1.714-3.131 3.288-4.354 1.575-1.216 3.546-2.136 5.911-2.76v0c1.276-0.337 2.612-0.579 4.007-0.727 1.395-0.148 2.866-0.205 4.412-0.172v0l-0.38-0.303 2.076 7.861 0.542-0.454c-1.596-0.744-3.281-1.171-5.055-1.282-1.774-0.111-3.395 0.028-4.865 0.416v0c-1.624 0.429-2.726 1.102-3.304 2.02-0.576 0.924-0.734 1.883-0.471 2.875v0c0.22 0.832 0.696 1.474 1.429 1.929 0.734 0.454 1.653 0.801 2.757 1.041 1.104 0.239 2.321 0.473 3.65 0.702v0c1.428 0.237 2.861 0.558 4.299 0.964 1.444 0.405 2.728 1.048 3.85 1.932 1.116 0.884 1.898 2.174 2.346 3.869v0c0.573 2.172 0.533 4.121-0.122 5.845-0.653 1.731-1.792 3.203-3.416 4.418-1.63 1.216-3.628 2.137-5.993 2.761v0c-1.405 0.371-2.89 0.635-4.455 0.794-1.567 0.152-3.2 0.231-4.902 0.239v0z" opacity="1" transform="matrix(1,0,0,1,0,0)" fill="#999a9b" class="wordmark-text-0" data-fill-palette-color="primary" id="text-0"></path></svg></g></svg></g></svg></g></svg></g><g transform="matrix(1,0,0,1,168.06356775106212,0)"><svg viewBox="0 0 59.39286449787575 102.36857937644923" height="102.36857937644923" width="59.39286449787575"><g><svg xmlns="http://www.w3.org/2000/svg" xmlns:xlink="http://www.w3.org/1999/xlink" version="1.1" x="0" y="0" viewBox="21.679106830508616 1 56.85827385947762 98" enable-background="new 0 0 100 100" xml:space="preserve" height="102.36857937644923" width="59.39286449787575" class="icon-icon-0" data-fill-palette-color="accent" id="icon-0"></svg></g></svg></g><g></g></svg></g><defs></defs><mask id="7ed4b951-15ab-4808-baa4-6eb809bc5b34"><g id="SvgjsG1859"><svg viewBox="0 0 395.52 211.25251609601918" height="211.25251609601918" width="395.52"><g><svg viewBox="0 0 395.52 211.25251609601918" height="211.25251609601918" width="395.52"><g transform="matrix(1,0,0,1,0,108.88393671956996)"><svg viewBox="0 0 395.52 102.36857937644923" height="102.36857937644923" width="395.52"><g id="SvgjsG1858"><svg viewBox="0 0 395.52 102.36857937644923" height="102.36857937644923" width="395.52" id="SvgjsSvg1857"><g><svg viewBox="0 0 395.52 102.36857937644923" height="102.36857937644923" width="395.52"><g transform="matrix(1,0,0,1,0,0)"><svg width="395.52" viewBox="-4.482252137709962 -15.736868386178541 174.58983579805508 45.1873921083036" height="102.36857937644923" data-palette-color="#999a9b"><path d="M6.238 6.155l-4.134 5.967 0.694 0.499 4.133-5.967v0 0 0l11.866-16.916c0.05-0.056-0.027-0.052-0.231 0.01-0.205 0.069-0.275 0.112-0.211 0.129v0l2.674 0.724c0.064 0.017 0.025-0.055-0.117-0.218-0.144-0.156-0.209-0.198-0.195-0.125v0l1.754 20.605c0.032 0.009 0.042 0.011 0.029 0.008-0.019-0.005-0.029-0.008-0.029-0.008v0l0.461 7.212 0.851-0.081-0.461-7.211v0 0 0l-1.764-20.608c-0.053-0.187-0.16-0.302-0.32-0.346v0l-2.674-0.724c-0.161-0.044-0.311 0.002-0.451 0.137v0l-11.875 16.913v0 0zM6.48 6.791l16.312 4.418 0.209-0.772-16.312-4.418zM18.84-10.613l-1.165-4.418-0.768 0.196 1.162 4.428c-0.009 0.032-0.011 0.014-0.006-0.054-0.002-0.07-0.007-0.088-0.016-0.056v0l-0.367 5.909c0.012 0.21 0.115 0.342 0.307 0.395 0.187 0.051 0.338-0.012 0.455-0.188v0l3.051-5.183c0.009-0.032-0.012-0.02-0.061 0.036-0.05 0.056-0.054 0.072-0.013 0.048v0l3.528-3.158-0.574-0.559-3.516 3.15c0 0-0.003 0.01-0.008 0.029-0.003 0.013-0.026 0.031-0.066 0.055v0l-3.051 5.182c-0.084 0.184 0.023 0.324 0.322 0.419 0.297 0.101 0.444 0.031 0.44-0.212v0l0.368-5.909c0 0-0.005-0.008-0.014-0.025-0.014-0.025-0.017-0.053-0.008-0.085zM6.734 6.808l5.075-1.868-0.302-0.797-5.072 1.859c-0.082 0.047-0.145 0.127-0.189 0.238-0.049 0.104-0.054 0.213-0.016 0.328v0l1.494 3.585 0.707-0.316-1.492-3.595c-0.015-0.073-0.081 0.006-0.198 0.236-0.11 0.226-0.112 0.336-0.007 0.33zM23.181 10.538l-3.875-4.282-0.557 0.564 3.863 4.289c0.088 0.058 0.144-0.047 0.169-0.317 0.018-0.271-0.018-0.367-0.108-0.289v0l-3.528 2.236 0.442 0.627 3.534-2.223c0.082-0.047 0.14-0.135 0.175-0.264 0.035-0.129-0.003-0.243-0.115-0.341zM2.131 12.596l3.263 4.479 0.629-0.451-3.252-4.477c-0.047-0.082-0.107-0.14-0.181-0.173-0.078-0.042-0.159-0.039-0.241 0.007v0l-6.554 1.82 0.204 0.781 6.553-1.82c0.082-0.047 0.022-0.108-0.178-0.183-0.209-0.07-0.29-0.065-0.243 0.017zM23.073 18.32l5.077 4.97 0.569-0.571-5.077-4.97c-0.047-0.082-0.112-0.123-0.194-0.125-0.087-0.01-0.172 0.009-0.253 0.056v0l-5.406 2.13 0.326 0.71 5.405-2.131c0.073-0.015 0.007-0.05-0.199-0.105-0.212-0.058-0.295-0.045-0.248 0.036zM8.439 10.191l-0.464 0.185 11.293 3.059-0.308-0.394c0.026 1.409-0.008 2.54-0.1 3.392-0.091 0.846-0.233 1.536-0.426 2.07-0.198 0.527-0.458 1.002-0.78 1.426v0c-0.061 0.122-0.077 0.245-0.049 0.37 0.033 0.133 0.114 0.217 0.243 0.252v0l10.482 2.84c0.154 0.042 0.284-0.003 0.388-0.133 0.103-0.124 0.123-0.264 0.062-0.419v0c-0.218-0.57-0.421-1.24-0.606-2.008-0.186-0.769-0.368-1.802-0.548-3.101-0.18-1.299-0.39-3.024-0.629-5.175-0.238-2.157-0.519-4.906-0.844-8.247v0c-0.287-3.124-0.514-5.699-0.683-7.727-0.167-2.034-0.285-3.652-0.354-4.852-0.069-1.2-0.102-2.148-0.1-2.845 0.004-0.703 0.018-1.29 0.042-1.76v0c-0.006-0.105-0.033-0.199-0.079-0.281-0.047-0.082-0.119-0.136-0.216-0.161v0l-7.364-1.995c-0.097-0.026-0.192-0.018-0.287 0.026-0.101 0.042-0.169 0.127-0.204 0.255v0c-0.161 0.467-0.421 1.019-0.779 1.654-0.36 0.641-0.903 1.472-1.628 2.491-0.719 1.021-1.658 2.348-2.819 3.981-1.162 1.64-2.622 3.676-4.379 6.108v0c-1.966 2.721-3.596 4.952-4.891 6.694-1.292 1.736-2.344 3.119-3.154 4.15-0.811 1.03-1.49 1.831-2.039 2.4-0.548 0.57-1.064 1.045-1.546 1.426v0c-0.125 0.104-0.174 0.236-0.149 0.395 0.018 0.164 0.107 0.267 0.269 0.311v0l9.806 2.656c0.161 0.044 0.289 0.016 0.385-0.082 0.094-0.092 0.126-0.211 0.097-0.358v0c-0.032-0.52-0.007-1.059 0.075-1.616 0.084-0.564 0.31-1.232 0.677-2.003 0.363-0.779 0.898-1.774 1.606-2.984zM18.429-4.353l-0.763-0.206 0.94 11.143 0.52-0.429-7.365-1.995 0.243 0.636zM19.474 12.673l-11.293-3.059c-0.097-0.026-0.183-0.025-0.26 0.002-0.078 0.034-0.146 0.092-0.202 0.173v0c-0.761 1.306-1.325 2.38-1.69 3.22-0.366 0.84-0.588 1.557-0.666 2.151-0.073 0.602-0.082 1.183-0.027 1.744v0l0.472-0.442-9.806-2.657 0.119 0.706c0.51-0.38 1.041-0.861 1.593-1.444 0.553-0.589 1.247-1.403 2.081-2.441 0.827-1.04 1.89-2.437 3.187-4.192 1.297-1.755 2.934-4.009 4.908-6.762v0c1.807-2.488 3.305-4.565 4.496-6.231 1.182-1.662 2.139-3.012 2.869-4.051 0.722-1.034 1.265-1.878 1.628-2.533 0.364-0.654 0.626-1.215 0.788-1.682v0l-0.479 0.274 7.365 1.995-0.295-0.442c-0.034 0.509-0.049 1.112-0.045 1.811-0.004 0.703 0.024 1.671 0.084 2.903 0.06 1.232 0.181 2.864 0.363 4.895 0.187 2.04 0.432 4.641 0.735 7.804v0c0.322 3.375 0.6 6.147 0.835 8.317 0.234 2.17 0.446 3.913 0.635 5.228 0.189 1.315 0.374 2.367 0.555 3.155 0.182 0.781 0.401 1.466 0.656 2.053v0l0.459-0.549-10.482-2.84 0.194 0.623c0.363-0.447 0.652-0.953 0.866-1.516 0.219-0.555 0.387-1.287 0.502-2.196 0.108-0.91 0.16-2.122 0.156-3.635v0c-0.008-0.099-0.037-0.183-0.088-0.252-0.052-0.062-0.123-0.106-0.213-0.13zM19.447 6.501l-0.94-11.143c-0.021-0.178-0.124-0.293-0.311-0.344-0.193-0.052-0.344-0.007-0.451 0.137v0l-6.435 9.146c-0.067 0.12-0.074 0.246-0.02 0.378 0.048 0.13 0.136 0.213 0.265 0.248v0l7.365 1.995c0.161 0.044 0.288 0.019 0.382-0.073 0.094-0.092 0.142-0.207 0.145-0.344zM38.322 21.527v0l4.078-27.257c0.015-0.099-0.08-0.073-0.285 0.079-0.211 0.15-0.267 0.233-0.168 0.247v0l7.358 1.101v0 0 0c2.578 0.386 4.751 1.274 6.518 2.664 1.761 1.383 3.043 3.135 3.844 5.257 0.802 2.122 1.002 4.525 0.6 7.208v0 0 0 0c-0.401 2.677-1.297 4.932-2.691 6.766-1.392 1.827-3.133 3.144-5.222 3.951-2.096 0.805-4.432 1.015-7.01 0.63v0 0 0 0l-7.358-1.101c-0.099-0.015-0.069 0.081 0.088 0.286 0.15 0.211 0.233 0.267 0.248 0.169zM38.131 21.791l4.141-2.535-0.407-0.658-4.141 2.536c0 0 0.011-0.008 0.034-0.026 0.015-0.011 0.023-0.017 0.023-0.016v0l-5.301 2.311 0.282 0.75 5.312-2.32c0.033 0.005 0.05 0.001 0.053-0.012 0.003-0.02 0.004-0.03 0.004-0.03zM42.254-6.106l-4.401-3.763-0.488 0.625 4.39 3.771c0 0-0.005-0.011-0.015-0.032-0.018-0.016-0.027-0.024-0.027-0.025v0l3.217 3.637 0.584-0.52-3.218-3.636c0 0 0.001-0.007 0.003-0.02 0.003-0.02-0.012-0.032-0.045-0.037zM41.619-5.847l-4.078 27.257c-0.015 0.099 0.011 0.194 0.079 0.284 0.067 0.091 0.15 0.144 0.249 0.159v0l7.358 1.101v0 0 0c2.71 0.405 5.18 0.182 7.411-0.671 2.237-0.852 4.094-2.242 5.569-4.172 1.476-1.936 2.427-4.325 2.851-7.167v0 0 0 0c0.425-2.842 0.214-5.398-0.632-7.668-0.848-2.264-2.218-4.12-4.111-5.569-1.885-1.455-4.183-2.385-6.893-2.791v0 0 0 0l-7.358-1.101c-0.099-0.015-0.194 0.015-0.286 0.089-0.091 0.067-0.144 0.15-0.159 0.249zM32.567 24.174v0l12.442 1.862c3.303 0.494 6.359 0.233 9.166-0.783 2.809-1.022 5.15-2.704 7.024-5.046 1.867-2.343 3.06-5.245 3.578-8.706v0c0.519-3.468 0.226-6.579-0.879-9.333-1.111-2.755-2.861-5.029-5.248-6.822-2.388-1.793-5.233-2.937-8.536-3.431v0l-12.442-1.861c-0.132-0.02-0.249 0.02-0.351 0.119-0.097 0.107-0.124 0.244-0.082 0.413v0c0.188 0.5 0.316 1.089 0.382 1.766 0.067 0.677 0.055 1.592-0.036 2.745-0.086 1.16-0.245 2.676-0.478 4.549-0.225 1.867-0.556 4.255-0.991 7.162v0c-0.46 3.072-0.864 5.594-1.213 7.564-0.342 1.971-0.646 3.553-0.912 4.747-0.261 1.201-0.523 2.123-0.788 2.764-0.265 0.648-0.563 1.196-0.893 1.646v0c-0.086 0.122-0.099 0.255-0.04 0.399 0.066 0.145 0.165 0.227 0.297 0.246zM45.163-1.758l3.432 0.514c2.941 0.44 5.115 1.699 6.523 3.777 1.414 2.085 1.891 4.664 1.431 7.737v0c-0.46 3.072-1.673 5.412-3.639 7.018-1.96 1.614-4.411 2.202-7.352 1.762v0l-3.431-0.513 0.337 0.444c0.12-1.249 0.295-2.76 0.527-4.532 0.23-1.765 0.537-3.924 0.918-6.475v0c0.347-2.321 0.66-4.296 0.937-5.927 0.277-1.624 0.531-2.988 0.764-4.092v0zM45.127 25.244l-12.441-1.861 0.247 0.644c0.338-0.455 0.641-1.02 0.911-1.694 0.264-0.682 0.547-1.627 0.849-2.836 0.295-1.203 0.62-2.816 0.976-4.839 0.349-2.017 0.758-4.595 1.228-7.733v0c0.445-2.974 0.787-5.42 1.027-7.339 0.233-1.92 0.381-3.469 0.443-4.646 0.055-1.178 0.053-2.112-0.006-2.801-0.064-0.697-0.192-1.309-0.382-1.837v0l-0.424 0.533 12.442 1.862c3.171 0.474 5.89 1.565 8.155 3.272 2.271 1.715 3.935 3.885 4.992 6.511 1.062 2.633 1.346 5.601 0.852 8.904v0c-0.493 3.297-1.635 6.065-3.427 8.304-1.785 2.241-4.013 3.845-6.686 4.814-2.666 0.97-5.585 1.217-8.756 0.742zM48.713-2.035v0l-3.432-0.514c-0.099-0.015-0.193 0.005-0.282 0.059-0.096 0.053-0.151 0.129-0.165 0.228v0c-0.243 1.17-0.502 2.567-0.779 4.191-0.278 1.63-0.59 3.606-0.937 5.927v0c-0.382 2.552-0.688 4.71-0.918 6.475-0.231 1.772-0.407 3.283-0.527 4.532v0c-0.02 0.132 0.008 0.237 0.084 0.316 0.069 0.078 0.153 0.124 0.253 0.139v0l3.431 0.513c3.138 0.47 5.78-0.153 7.924-1.868 2.145-1.722 3.467-4.247 3.965-7.577v0c0.494-3.303-0.034-6.082-1.584-8.336-1.55-2.254-3.894-3.616-7.033-4.085zM73.279 25.723l1.621-27.512-0.799-0.047-1.621 27.512zM72.66 26.027l4.67 3.361 0.441-0.675-4.671-3.351c-0.031-0.035-0.087-0.055-0.167-0.06-0.087-0.005-0.164 0.007-0.233 0.036v0l-5.072 2.777 0.348 0.722 5.083-2.786c0.07-0.063 0.006-0.1-0.194-0.112-0.2-0.012-0.268 0.018-0.205 0.088zM74.721-2.15l-4.721-3.354-0.43 0.666 4.71 3.363c0.065 0.031 0.141 0.048 0.228 0.053 0.08 0.005 0.137-0.005 0.172-0.03v0l5.033-2.788-0.359-0.713-5.032 2.779c-0.069 0.029-0.003 0.05 0.196 0.062 0.2 0.012 0.267-0.001 0.203-0.038zM67.774 28.875v0l9.753 0.574c0.166 0.01 0.283-0.05 0.351-0.179 0.074-0.129 0.082-0.262 0.024-0.399v0c-0.197-0.506-0.366-1.103-0.506-1.793-0.147-0.683-0.224-1.639-0.231-2.869-0.015-1.223 0.013-2.834 0.084-4.833 0.071-1.999 0.198-4.55 0.381-7.651v0c0.173-2.935 0.338-5.339 0.495-7.214 0.158-1.881 0.314-3.397 0.468-4.55 0.148-1.147 0.334-2.044 0.56-2.692 0.219-0.648 0.455-1.199 0.708-1.651v0c0.076-0.156 0.084-0.296 0.025-0.419-0.053-0.117-0.163-0.18-0.33-0.19v0l-9.753-0.575c-0.126-0.007-0.236 0.043-0.329 0.151-0.087 0.115-0.102 0.254-0.045 0.418v0c0.232 0.481 0.412 1.056 0.54 1.725 0.128 0.669 0.197 1.581 0.209 2.737 0.018 1.163-0.005 2.688-0.069 4.574-0.057 1.88-0.173 4.287-0.346 7.222v0c-0.183 3.101-0.36 5.649-0.53 7.642-0.164 1.994-0.326 3.597-0.484 4.81-0.152 1.22-0.331 2.161-0.537 2.823-0.206 0.669-0.454 1.242-0.742 1.72v0c-0.074 0.129-0.076 0.263-0.004 0.4 0.079 0.138 0.181 0.211 0.308 0.219zM77.574 28.651l-9.753-0.575 0.314 0.62c0.296-0.483 0.544-1.073 0.745-1.77 0.208-0.702 0.409-1.669 0.602-2.899 0.186-1.225 0.362-2.86 0.53-4.908 0.174-2.04 0.354-4.644 0.54-7.811v0c0.177-3.001 0.296-5.469 0.356-7.402 0.067-1.933 0.079-3.488 0.035-4.666-0.051-1.178-0.14-2.109-0.267-2.791-0.12-0.688-0.298-1.286-0.535-1.794v0l-0.384 0.568 9.753 0.575-0.315-0.61c-0.262 0.479-0.503 1.052-0.722 1.721-0.219 0.662-0.42 1.575-0.602 2.739-0.189 1.164-0.363 2.71-0.524 4.637-0.167 1.927-0.339 4.391-0.516 7.393v0c-0.187 3.168-0.314 5.775-0.381 7.821-0.074 2.053-0.088 3.698-0.04 4.936 0.04 1.245 0.129 2.228 0.267 2.951 0.138 0.716 0.309 1.33 0.512 1.843v0zM101.805-1.254v0l0.082-0.793c-1.189-0.073-2.57-0.114-4.144-0.124-1.567-0.017-3.121-0.025-4.662-0.023-1.534 0.002-2.88 0.033-4.039 0.094v0c-0.133 0.003-0.232 0.049-0.296 0.136-0.058 0.081-0.086 0.172-0.084 0.272v0l0.635 27.553c0.002 0.1 0.034 0.189 0.096 0.268 0.068 0.078 0.169 0.116 0.303 0.113v0c1.194 0.006 2.55-0.015 4.07-0.064 1.519-0.055 3.044-0.134 4.575-0.235 1.538-0.095 2.899-0.207 4.084-0.335v0l-0.119-0.797c-1.151 0.127-2.485 0.241-4.003 0.342-1.518 0.102-3.037 0.18-4.556 0.235-1.519 0.048-2.876 0.07-4.069 0.064v0c-0.1 0.002-0.055 0.091 0.136 0.267 0.184 0.182 0.275 0.224 0.273 0.124v0l-0.635-27.553c-0.002-0.1-0.091-0.058-0.268 0.126-0.182 0.184-0.224 0.275-0.123 0.273v0c1.159-0.053 2.505-0.084 4.039-0.093 1.54-0.002 3.088 0.005 4.641 0.023 1.554 0.011 2.909 0.053 4.064 0.126zM89.367 11.976l11.447-0.264-0.018-0.79-11.447 0.264zM89.944 26.136l3.647-3.205-0.514-0.578-3.647 3.205c0 0 0.01-0.01 0.03-0.031 0.013-0.014 0.02-0.02 0.019-0.02v0l-4.828 3.182 0.406 0.691 4.838-3.193c0.033-0.001 0.05-0.008 0.049-0.021 0-0.02-0.001-0.03 0-0.03zM89.244-2.055l-4.98-2.956-0.374 0.699 4.97 2.966c0 0-0.007-0.01-0.021-0.03-0.02-0.013-0.03-0.019-0.03-0.019v0l3.791 3.034 0.486-0.612-3.791-3.033c0 0 0-0.007-0.001-0.02 0-0.02-0.017-0.03-0.05-0.029zM102.152-1.413l2.99-3.489-0.601-0.477-3 3.49c-0.033 0.034-0.054 0.108-0.065 0.222-0.017 0.114-0.009 0.204 0.026 0.269v0l3.179 4.248 0.678-0.515-3.169-4.239c-0.068-0.065-0.11 0.019-0.124 0.253-0.008 0.227 0.02 0.306 0.086 0.238zM102.671 25.453l3.948-4.903-0.601-0.486-3.958 4.903c-0.065 0.068-0.097 0.152-0.094 0.252 0.002 0.1 0.038 0.183 0.106 0.247v0l3.158 3.349 0.578-0.514-3.148-3.348c-0.068-0.065-0.093 0.019-0.074 0.252 0.025 0.233 0.054 0.316 0.085 0.248zM101.111 11.555l2.975-4.13-0.601-0.486-2.986 4.13c-0.058 0.068-0.087 0.152-0.084 0.252 0.002 0.1 0.034 0.183 0.096 0.248v0l3.171 3.938 0.579-0.504-3.162-3.948c-0.035-0.059-0.049 0.024-0.044 0.251 0.005 0.233 0.024 0.316 0.056 0.249zM89.615 11.87l3.45-3.05-0.513-0.589-3.451 3.051c-0.092 0.069-0.136 0.17-0.133 0.303 0.003 0.133 0.052 0.232 0.147 0.297v0l3.587 2.888 0.487-0.602-3.588-2.898c-0.101-0.058-0.149 0.043-0.143 0.304 0.006 0.267 0.058 0.365 0.157 0.296zM84.868 29.434v0l20.655-0.476c0.1-0.002 0.183-0.038 0.248-0.106 0.065-0.068 0.113-0.153 0.144-0.253v0l0.8-8.251c0.029-0.167-0.03-0.296-0.179-0.386-0.149-0.097-0.305-0.08-0.469 0.051v0c-0.556 0.48-1.273 0.876-2.153 1.19-0.886 0.321-2.154 0.566-3.804 0.738-1.65 0.171-3.911 0.274-6.785 0.306v0l0.409 0.381c-0.056-0.986-0.116-2.148-0.181-3.487-0.064-1.339-0.134-2.898-0.207-4.676v0l-0.391 0.399c2.613-0.06 4.603-0.073 5.97-0.038 1.375 0.035 2.41 0.111 3.106 0.229 0.696 0.117 1.281 0.301 1.754 0.549v0c0.161 0.063 0.301 0.053 0.419-0.029 0.111-0.083 0.166-0.191 0.163-0.324v0l-0.187-8.078c-0.004-0.167-0.063-0.282-0.178-0.346-0.122-0.064-0.261-0.061-0.42 0.01v0c-0.46 0.277-1.035 0.497-1.725 0.66-0.69 0.163-1.727 0.287-3.112 0.371-1.385 0.079-3.367 0.164-5.946 0.258v0l0.409 0.39c-0.002-1.554-0.001-2.917 0.006-4.091 0.006-1.174 0.016-2.208 0.029-3.101v0l-0.391 0.409c2.804-0.131 4.978-0.141 6.521-0.031 1.536 0.111 2.697 0.275 3.482 0.49 0.779 0.215 1.434 0.464 1.968 0.745v0c0.168 0.063 0.311 0.053 0.429-0.03 0.111-0.083 0.166-0.191 0.163-0.324v0l-0.178-7.728c-0.002-0.1-0.044-0.192-0.127-0.277-0.088-0.078-0.183-0.116-0.283-0.113v0l-20.754 0.478c-0.133 0.003-0.242 0.062-0.326 0.178-0.077 0.122-0.081 0.262-0.01 0.42v0c0.271 0.461 0.497 1.019 0.678 1.675 0.182 0.656 0.326 1.56 0.433 2.711 0.113 1.158 0.215 2.679 0.305 4.564 0.097 1.878 0.179 4.287 0.247 7.226v0c0.072 3.106 0.104 5.659 0.097 7.66-0.001 2.001-0.03 3.612-0.089 4.833-0.052 1.228-0.153 2.181-0.304 2.858-0.151 0.684-0.351 1.275-0.599 1.774v0c-0.064 0.135-0.054 0.268 0.029 0.4 0.09 0.131 0.201 0.195 0.334 0.192zM105.504 28.158l-20.654 0.476 0.354 0.592c0.255-0.506 0.458-1.114 0.608-1.824 0.144-0.717 0.261-1.696 0.352-2.939 0.085-1.236 0.13-2.88 0.136-4.934-0.001-2.047-0.037-4.657-0.11-7.83v0c-0.069-3.006-0.15-5.475-0.241-7.406-0.098-1.932-0.217-3.483-0.357-4.653-0.147-1.17-0.308-2.09-0.484-2.76-0.182-0.676-0.412-1.257-0.691-1.745v0l-0.326 0.598 20.755-0.479-0.399-0.38 0.178 7.728 0.582-0.364c-0.567-0.287-1.26-0.544-2.079-0.772-0.812-0.228-2.013-0.407-3.603-0.537-1.59-0.123-3.82-0.122-6.692 0.004v0c-0.1 0.002-0.189 0.038-0.267 0.106-0.085 0.069-0.126 0.17-0.123 0.303v0c-0.013 0.894-0.022 1.928-0.029 3.102-0.006 1.174-0.008 2.538-0.005 4.091v0c0.002 0.1 0.048 0.189 0.136 0.267 0.082 0.078 0.173 0.116 0.272 0.113v0c2.046-0.047 3.705-0.109 4.977-0.184 1.272-0.076 2.297-0.173 3.075-0.291 0.771-0.118 1.385-0.249 1.841-0.393 0.463-0.144 0.89-0.321 1.278-0.53v0l-0.598-0.326 0.187 8.078 0.582-0.363c-0.398-0.191-0.832-0.348-1.302-0.471-0.463-0.116-1.082-0.208-1.857-0.277-0.782-0.062-1.816-0.105-3.103-0.128-1.294-0.017-2.947-0.002-4.961 0.044v0c-0.1 0.002-0.189 0.044-0.267 0.126-0.085 0.089-0.126 0.183-0.123 0.283v0c0.074 1.779 0.144 3.338 0.208 4.677 0.064 1.339 0.124 2.501 0.18 3.486v0c0.003 0.133 0.049 0.232 0.137 0.297 0.082 0.065 0.172 0.096 0.272 0.094v0c3.007-0.036 5.358-0.147 7.054-0.333 1.703-0.193 3.01-0.463 3.923-0.81 0.919-0.355 1.669-0.785 2.25-1.293v0l-0.647-0.335-0.8 8.251zM113.727 28.101l4.472-3.847-0.483-0.646-4.462 3.846zM118.242 24.198l3.29-3.712-0.568-0.524-3.291 3.702zM114.758-3.595l-5.25-2.444-0.302 0.732 5.24 2.456c0.069 0.018 0.147 0.022 0.234 0.012 0.079-0.01 0.134-0.03 0.163-0.061v0l4.446-3.653-0.482-0.635-4.446 3.643c-0.062 0.041 0.006 0.05 0.204 0.025 0.198-0.025 0.263-0.049 0.193-0.075zM129.501 22.353l3.497 3.266 0.534-0.57-3.507-3.264c-0.034-0.056-0.037 0.028-0.009 0.253 0.029 0.232 0.052 0.313 0.071 0.243v0l3.449-5.273-0.655-0.413-3.441 5.262c-0.058 0.074-0.081 0.161-0.069 0.26 0.012 0.099 0.056 0.178 0.13 0.236zM118.355 23.882l-3.356-27.154-0.784 0.097 3.355 27.154c0.016 0.132 0.068 0.227 0.156 0.283 0.088 0.056 0.181 0.078 0.281 0.066v0l11.81-1.863-0.097-0.784-11.812 1.853c-0.132 0.016-0.087 0.112 0.137 0.285 0.223 0.174 0.326 0.195 0.31 0.063zM113.545 28.174v0l19.769-2.443c0.099-0.012 0.178-0.056 0.236-0.13 0.058-0.074 0.097-0.163 0.118-0.266v0l-0.057-8.538c0.013-0.163-0.062-0.285-0.227-0.365-0.158-0.081-0.311-0.045-0.46 0.107v0c-0.503 0.492-1.164 0.94-1.98 1.343-0.818 0.397-1.99 0.75-3.517 1.06-1.528 0.303-3.604 0.6-6.228 0.89v0l0.446 0.348c-0.217-1.209-0.449-2.679-0.695-4.408-0.248-1.736-0.522-3.818-0.823-6.246v0c-0.361-2.918-0.633-5.312-0.817-7.184-0.178-1.879-0.299-3.399-0.362-4.56-0.062-1.154-0.041-2.071 0.063-2.749 0.098-0.677 0.234-1.262 0.408-1.753v0c0.047-0.167 0.029-0.306-0.051-0.417-0.08-0.104-0.203-0.146-0.368-0.126v0l-9.687 1.198c-0.132 0.016-0.235 0.086-0.306 0.209-0.065 0.129-0.054 0.269 0.031 0.419v0c0.315 0.431 0.596 0.964 0.843 1.599 0.246 0.635 0.48 1.519 0.701 2.654 0.228 1.141 0.481 2.644 0.759 4.511 0.283 1.859 0.606 4.248 0.966 7.165v0c0.381 3.083 0.668 5.621 0.86 7.612 0.199 1.991 0.33 3.597 0.394 4.818 0.071 1.227 0.065 2.185-0.018 2.874-0.082 0.695-0.222 1.304-0.419 1.826v0c-0.05 0.141-0.027 0.272 0.069 0.394 0.102 0.122 0.22 0.174 0.352 0.158zM133.216 24.937l-19.769 2.443 0.411 0.554c0.203-0.529 0.344-1.154 0.423-1.876 0.071-0.728 0.09-1.714 0.057-2.96-0.039-1.238-0.158-2.879-0.356-4.923-0.205-2.037-0.502-4.63-0.891-7.78v0c-0.369-2.984-0.695-5.432-0.978-7.345-0.29-1.912-0.563-3.444-0.82-4.594-0.263-1.15-0.515-2.049-0.757-2.698-0.249-0.654-0.536-1.21-0.861-1.667v0l-0.265 0.628 9.687-1.197-0.42-0.543c-0.164 0.517-0.298 1.125-0.4 1.823-0.096 0.69-0.128 1.625-0.097 2.803 0.025 1.179 0.133 2.731 0.324 4.655 0.184 1.925 0.461 4.38 0.829 7.364v0c0.3 2.428 0.574 4.51 0.823 6.246 0.247 1.729 0.479 3.199 0.695 4.408v0c0.016 0.132 0.071 0.223 0.165 0.272 0.088 0.056 0.181 0.078 0.28 0.066v0c2.756-0.307 4.923-0.632 6.5-0.974 1.57-0.342 2.779-0.723 3.627-1.144 0.848-0.421 1.538-0.899 2.07-1.434v0l-0.678-0.269 0.047 8.538zM134.671-6.097l1.556 8.478 0.777-0.142-1.556-8.479zM136.429 2.649l2.9 1.786 0.376-0.669-2.9-1.786c-0.078-0.054-0.162-0.072-0.255-0.055-0.098 0.018-0.174 0.066-0.227 0.144v0l-2.028 2.69 0.598 0.49 2.018-2.688c0.054-0.078-0.031-0.096-0.254-0.055-0.23 0.042-0.305 0.09-0.228 0.143zM135.246-6.508l-4.646-2.268-0.385 0.671 4.658 2.276c0.076 0.047 0.164 0.061 0.262 0.043 0.092-0.017 0.165-0.061 0.22-0.132v0l3.594-3.791-0.598-0.49-3.587 3.78c-0.06 0.045 0.025 0.046 0.255 0.004 0.223-0.041 0.299-0.072 0.227-0.093zM134.523 4.616l0.445 0.264-4.175-13.437-0.314 0.505 8.242-1.513-0.473-0.361 0.871 14.044 0.322-0.405zM130.032-8.326l4.177 13.447c0.051 0.092 0.115 0.165 0.193 0.219 0.078 0.054 0.166 0.071 0.264 0.053v0l4.917-0.903c0.098-0.018 0.174-0.066 0.228-0.144 0.054-0.078 0.088-0.169 0.103-0.273v0l-0.863-14.055c0.003-0.129-0.042-0.23-0.136-0.3-0.093-0.064-0.205-0.084-0.337-0.06v0l-8.242 1.513c-0.131 0.024-0.229 0.083-0.293 0.176-0.063 0.1-0.067 0.209-0.011 0.327zM159.725-11.433v0l0.089-0.84c-1.046-0.069-2.067-0.058-3.063 0.033-1.001 0.099-1.966 0.271-2.895 0.516v0 0 0 0c-2.681 0.708-4.623 1.893-5.825 3.554-1.201 1.668-1.518 3.573-0.954 5.713v0 0 0 0c0.347 1.315 0.996 2.323 1.947 3.023 0.958 0.705 2.098 1.235 3.419 1.59 1.326 0.346 2.707 0.654 4.143 0.923v0 0 0 0c1.298 0.243 2.56 0.517 3.785 0.822 1.227 0.311 2.297 0.773 3.21 1.386 0.914 0.614 1.526 1.51 1.837 2.69v0 0 0 0c0.541 2.05 0.214 3.829-0.98 5.337-1.186 1.513-3.043 2.603-5.57 3.27v0 0 0 0c-0.986 0.26-2.038 0.442-3.155 0.544-1.122 0.11-2.256 0.127-3.4 0.049v0l-0.086 0.85c1.213 0.052 2.402 0.021 3.564-0.093 1.168-0.122 2.26-0.318 3.279-0.586v0 0 0 0c2.746-0.725 4.766-1.941 6.06-3.648 1.292-1.713 1.643-3.688 1.052-5.925v0 0 0 0c-0.345-1.308-0.99-2.3-1.933-2.975-0.95-0.673-2.085-1.184-3.404-1.531-1.327-0.353-2.709-0.664-4.145-0.933v0 0 0 0c-1.297-0.237-2.56-0.517-3.791-0.841-1.232-0.33-2.306-0.808-3.223-1.434-0.917-0.627-1.532-1.533-1.845-2.72v0 0 0 0c-0.514-1.947-0.214-3.657 0.901-5.129 1.114-1.473 2.886-2.531 5.316-3.172v0 0 0 0c0.864-0.228 1.781-0.384 2.752-0.468 0.963-0.089 1.934-0.09 2.915-0.005zM160.087-11.631l2.261-3.462-0.627-0.455-2.269 3.474c-0.047 0.081-0.066 0.169-0.054 0.262 0.006 0.102 0.034 0.181 0.083 0.237v0l4.346 4.396 0.565-0.563-4.334-4.389c-0.049-0.056-0.063 0.023-0.04 0.238 0.022 0.215 0.045 0.302 0.069 0.262zM151.951 17.376l-2.246 3.52 0.634 0.443 2.249-3.511c0.047-0.081 0.075-0.175 0.081-0.28 0.007-0.105-0.031-0.182-0.112-0.228v0l-4.356-4.435-0.565 0.562 4.346 4.438c0.081 0.047 0.109-0.046 0.081-0.28-0.027-0.234-0.065-0.31-0.112-0.229zM147.536 13.267v0l2.101 7.957c0.026 0.097 0.072 0.167 0.139 0.212 0.062 0.053 0.146 0.082 0.251 0.089v0c1.741-0.012 3.401-0.098 4.978-0.26 1.578-0.161 3.101-0.436 4.571-0.824v0c2.527-0.667 4.652-1.655 6.375-2.965 1.723-1.31 2.927-2.9 3.612-4.77 0.685-1.87 0.724-3.956 0.116-6.257v0c-0.482-1.824-1.313-3.222-2.492-4.193-1.18-0.971-2.537-1.671-4.071-2.1-1.527-0.431-3.058-0.772-4.593-1.022v0c-1.119-0.215-2.189-0.418-3.212-0.61-1.029-0.19-1.902-0.48-2.619-0.87-0.717-0.39-1.168-0.936-1.354-1.639v0c-0.22-0.832-0.072-1.605 0.443-2.32 0.506-0.72 1.43-1.257 2.771-1.611v0c1.379-0.364 2.911-0.493 4.593-0.385 1.681 0.101 3.282 0.495 4.802 1.184v0c0.148 0.064 0.288 0.045 0.419-0.059 0.126-0.095 0.168-0.224 0.125-0.385v0l-2.075-7.861c-0.026-0.097-0.069-0.171-0.131-0.224-0.069-0.051-0.155-0.08-0.261-0.086v0c-1.579-0.025-3.082 0.041-4.509 0.198-1.429 0.15-2.798 0.397-4.106 0.742v0c-2.527 0.667-4.623 1.658-6.29 2.974-1.674 1.311-2.832 2.878-3.474 4.703-0.647 1.833-0.684 3.835-0.111 6.007v0c0.488 1.85 1.325 3.27 2.511 4.26 1.184 0.984 2.543 1.694 4.079 2.13 1.527 0.431 3.057 0.768 4.59 1.012v0c1.112 0.189 2.188 0.374 3.228 0.554 1.042 0.187 1.925 0.461 2.648 0.821 0.727 0.353 1.188 0.896 1.382 1.632v0c0.228 0.864 0.057 1.678-0.514 2.442-0.564 0.763-1.597 1.342-3.099 1.738v0c-1.502 0.397-3.174 0.566-5.016 0.508-1.843-0.058-3.594-0.451-5.255-1.178v0c-0.154-0.063-0.297-0.042-0.428 0.061-0.125 0.102-0.166 0.233-0.124 0.395zM150.401 21.023l-2.101-7.958-0.542 0.454c1.764 0.727 3.606 1.137 5.527 1.23 1.921 0.093 3.68-0.072 5.279-0.494v0c1.792-0.473 3.001-1.196 3.627-2.168 0.634-0.967 0.816-1.963 0.545-2.988v0c-0.228-0.864-0.714-1.515-1.457-1.953-0.748-0.43-1.672-0.758-2.773-0.985-1.099-0.22-2.325-0.424-3.678-0.611v0c-1.428-0.237-2.861-0.558-4.299-0.965-1.444-0.405-2.731-1.058-3.858-1.96-1.119-0.897-1.907-2.21-2.363-3.937v0c-0.539-2.043-0.504-3.907 0.106-5.592 0.618-1.68 1.714-3.131 3.288-4.354 1.575-1.216 3.546-2.136 5.911-2.76v0c1.276-0.337 2.612-0.579 4.007-0.727 1.395-0.148 2.866-0.205 4.412-0.172v0l-0.38-0.303 2.076 7.861 0.542-0.454c-1.596-0.744-3.281-1.171-5.055-1.282-1.774-0.111-3.395 0.028-4.865 0.416v0c-1.624 0.429-2.726 1.102-3.304 2.02-0.576 0.924-0.734 1.883-0.471 2.875v0c0.22 0.832 0.696 1.474 1.429 1.929 0.734 0.454 1.653 0.801 2.757 1.041 1.104 0.239 2.321 0.473 3.65 0.702v0c1.428 0.237 2.861 0.558 4.299 0.964 1.444 0.405 2.728 1.048 3.85 1.932 1.116 0.884 1.898 2.174 2.346 3.869v0c0.573 2.172 0.533 4.121-0.122 5.845-0.653 1.731-1.792 3.203-3.416 4.418-1.63 1.216-3.628 2.137-5.993 2.761v0c-1.405 0.371-2.89 0.635-4.455 0.794-1.567 0.152-3.2 0.231-4.902 0.239v0z" opacity="1" transform="matrix(1,0,0,1,0,0)" fill="black" class="wordmark-text-0" id="SvgjsPath1856"></path></svg></g></svg></g></svg></g></svg></g><g transform="matrix(1,0,0,1,168.06356775106212,0)"><svg viewBox="0 0 59.39286449787575 102.36857937644923" height="102.36857937644923" width="59.39286449787575"><g><svg xmlns="http://www.w3.org/2000/svg" xmlns:xlink="http://www.w3.org/1999/xlink" version="1.1" x="0" y="0" viewBox="21.679106830508616 1 56.85827385947762 98" enable-background="new 0 0 100 100" xml:space="preserve" height="102.36857937644923" width="59.39286449787575" class="icon-icon-0" data-fill-palette-color="accent" id="SvgjsSvg1855"><g fill="white"><path fill-rule="evenodd" clip-rule="evenodd" d="M30.545 28.822C29.38 36.039 30.875 43.672 37.045 47.863 30.758 19.81 45.756 8.664 59.646 1 43.466 24.046 76.542 24.644 78.423 51.13 80.028 73.71 64.507 91.317 46.639 99 46.845 76.175 24.089 73.067 21.801 54.397 20.905 47.094 25.062 33.766 30.545 28.822" fill="white"></path></g></svg></g></svg></g><g></g></svg></g><defs><mask></mask></defs></svg><rect width="395.52" height="211.25251609601918" fill="black" stroke="none" visibility="hidden"></rect></g></mask><linearGradient x1="0.054" x2="0.941" y1="0.5" y2="0.5" id="8ed4b306-5437-4634-8da3-810cb2e8b493"><stop stop-color="#26282a" offset="0"></stop><stop stop-color="#9e9fa0" offset="0.498"></stop><stop stop-color="#26282a" offset="1"></stop></linearGradient><rect width="395.5202400884121" height="211.25251609601918" fill="url(#8ed4b306-5437-4634-8da3-810cb2e8b493)" mask="url(#7ed4b951-15ab-4808-baa4-6eb809bc5b34)" data-fill-palette-color="accent"></rect></svg><rect width="395.52" height="211.25251609601918" fill="none" stroke="none" visibility="hidden"></rect></g></svg></g></svg>